<?xml version="1.0" encoding="utf-8"?>
<!-- Generator: Adobe Illustrator 22.0.1, SVG Export Plug-In . SVG Version: 6.00 Build 0)  -->
<svg version="1.1" id="Layer_1" xmlns="http://www.w3.org/2000/svg" xmlns:xlink="http://www.w3.org/1999/xlink" x="0px" y="0px"
	 viewBox="0 0 311.5 311.5" style="enable-background:new 0 0 311.5 311.5;" xml:space="preserve">
<style type="text/css">
	.st0{fill:#333333;}
</style>
<title>user</title>
<path class="st0" d="M155.8,0C69.7,0,0,69.7,0,155.8c0,36,12.5,70.9,35.3,98.8c3.4-27.3,30.6-50.3,68.8-61.2
	c14,13,32,20.9,51.7,20.9c19.2,0,36.9-7.5,50.7-19.9c38.5,11.9,65.1,36.3,66,64.6c57-64.4,50.9-162.9-13.5-219.8
	C230.5,13.9,193.8,0,155.8,0z M155.8,195.7c-9.7,0-19.2-2.6-27.6-7.5c-20-11.4-33.9-34.8-33.9-61.7c0-38.1,27.6-69.2,61.5-69.2
	s61.5,31,61.5,69.2c0,27.4-14.2,51-34.8,62.2C174.3,193.3,165.1,195.7,155.8,195.7z"/>
</svg>
